<?xml version="1.0" standalone="no"?>
<!DOCTYPE svg PUBLIC "-//W3C//DTD SVG 20010904//EN"
 "http://www.w3.org/TR/2001/REC-SVG-20010904/DTD/svg10.dtd">
<svg version="1.0" xmlns="http://www.w3.org/2000/svg"
 width="512.000000pt" height="512.000000pt" viewBox="0 0 512.000000 512.000000"
 preserveAspectRatio="xMidYMid meet">
<metadata>
Created by potrace 1.14, written by Peter Selinger 2001-2017
</metadata>
<g transform="translate(0.000000,512.000000) scale(0.100000,-0.100000)"
fill="#000000" stroke="none">
<path d="M2489 5101 c-61 -33 -73 -62 -77 -182 l-4 -106 -37 -1 c-46 -2 -142
-11 -173 -17 -13 -3 -62 -12 -109 -20 -269 -47 -636 -187 -854 -326 -175 -111
-298 -204 -405 -305 -30 -29 -69 -65 -85 -80 -88 -84 -242 -273 -332 -409
-146 -221 -260 -480 -329 -745 -53 -203 -72 -329 -79 -539 -4 -125 -3 -137 18
-174 25 -44 79 -77 128 -77 68 0 149 76 149 139 0 51 146 124 295 148 86 14
284 8 367 -11 163 -36 237 -82 256 -157 19 -77 86 -124 162 -115 69 8 112 50
126 120 3 21 16 47 28 58 46 44 166 90 271 106 59 8 264 8 317 -1 111 -18 256
-81 276 -119 9 -17 13 -252 14 -913 3 -829 4 -893 21 -940 65 -180 170 -302
322 -375 92 -44 142 -56 247 -59 180 -5 362 81 479 228 102 128 158 342 114
435 -47 98 -194 113 -257 26 -10 -14 -25 -65 -33 -113 -22 -127 -72 -197 -175
-246 -44 -20 -69 -25 -125 -25 -118 2 -212 64 -264 174 l-26 55 -3 872 -3 871
38 31 c42 35 113 64 212 88 97 23 315 22 411 -1 156 -39 233 -89 244 -157 13
-80 94 -131 181 -115 50 10 103 66 111 117 4 23 16 50 28 61 96 93 448 142
651 90 158 -41 228 -85 239 -153 18 -114 167 -157 251 -74 44 44 49 76 41 236
-10 204 -44 405 -103 599 -259 856 -959 1523 -1832 1745 -104 26 -320 62 -401
66 -72 4 -70 2 -70 103 0 138 -36 191 -135 201 -38 4 -59 1 -86 -14z"/>
</g>
</svg>
